<?xml version="1.0" encoding="UTF-8" standalone="no"?>
<svg
   viewBox="0 0 640 640"
   version="1.1"
   id="svg1"
   sodipodi:docname="icon.svg"
   xml:space="preserve"
   inkscape:version="1.4.2 (ebf0e940d0, 2025-05-08)"
   xmlns:inkscape="http://www.inkscape.org/namespaces/inkscape"
   xmlns:sodipodi="http://sodipodi.sourceforge.net/DTD/sodipodi-0.dtd"
   xmlns:xlink="http://www.w3.org/1999/xlink"
   xmlns="http://www.w3.org/2000/svg"
   xmlns:svg="http://www.w3.org/2000/svg"><defs
     id="defs1"><linearGradient
       id="linearGradient5"><stop
         style="stop-color:#ffffff;stop-opacity:1;"
         offset="0"
         id="stop4" /><stop
         style="stop-color:#ffffff;stop-opacity:1;"
         offset="1"
         id="stop5" /></linearGradient><linearGradient
       id="linearGradient3"><stop
         style="stop-color:#ffffff;stop-opacity:1;"
         offset="0"
         id="stop2" /><stop
         style="stop-color:#ffffff;stop-opacity:1;"
         offset="1"
         id="stop3" /></linearGradient><linearGradient
       id="linearGradient2795"><stop
         style="stop-color:#b8b8b8;stop-opacity:0.49803922;"
         offset="0"
         id="stop2797" /><stop
         style="stop-color:#7f7f7f;stop-opacity:0;"
         offset="1"
         id="stop2799" /></linearGradient><linearGradient
       id="linearGradient2787"><stop
         style="stop-color:#7f7f7f;stop-opacity:0.5;"
         offset="0"
         id="stop2789" /><stop
         style="stop-color:#7f7f7f;stop-opacity:0;"
         offset="1"
         id="stop2791" /></linearGradient><linearGradient
       id="linearGradient3676"><stop
         style="stop-color:#b2b2b2;stop-opacity:0.5;"
         offset="0"
         id="stop3678" /><stop
         style="stop-color:#b3b3b3;stop-opacity:0;"
         offset="1"
         id="stop3680" /></linearGradient><linearGradient
       id="linearGradient3236"><stop
         style="stop-color:#f4f4f4;stop-opacity:1"
         offset="0"
         id="stop3244" /><stop
         style="stop-color:white;stop-opacity:1"
         offset="1"
         id="stop3240" /></linearGradient><linearGradient
       id="linearGradient4671"><stop
         style="stop-color:#ffd43b;stop-opacity:1;"
         offset="0"
         id="stop4673" /><stop
         style="stop-color:#ffe873;stop-opacity:1"
         offset="1"
         id="stop4675" /></linearGradient><linearGradient
       id="linearGradient4689"><stop
         style="stop-color:#5a9fd4;stop-opacity:1;"
         offset="0"
         id="stop4691" /><stop
         style="stop-color:#306998;stop-opacity:1;"
         offset="1"
         id="stop4693" /></linearGradient><linearGradient
       x1="224.23996"
       y1="144.75717"
       x2="-65.308502"
       y2="144.75717"
       id="linearGradient2987"
       xlink:href="#linearGradient4671"
       gradientUnits="userSpaceOnUse"
       gradientTransform="translate(100.2702,99.61116)" /><linearGradient
       x1="172.94208"
       y1="77.475983"
       x2="26.670298"
       y2="76.313133"
       id="linearGradient2990"
       xlink:href="#linearGradient4689"
       gradientUnits="userSpaceOnUse"
       gradientTransform="translate(100.2702,99.61116)" /><linearGradient
       inkscape:collect="always"
       xlink:href="#linearGradient4671"
       id="linearGradient2255"
       gradientUnits="userSpaceOnUse"
       gradientTransform="matrix(0.562541,0,0,0.567972,-11.5974,-7.60954)"
       x1="224.23996"
       y1="144.75717"
       x2="-65.308502"
       y2="144.75717" /><linearGradient
       inkscape:collect="always"
       xlink:href="#linearGradient4689"
       id="linearGradient2258"
       gradientUnits="userSpaceOnUse"
       gradientTransform="matrix(0.562541,0,0,0.567972,-11.5974,-7.60954)"
       x1="172.94208"
       y1="76.176224"
       x2="26.670298"
       y2="76.313133" /><radialGradient
       inkscape:collect="always"
       xlink:href="#linearGradient2795"
       id="radialGradient2801"
       cx="61.518883"
       cy="132.28575"
       fx="61.518883"
       fy="132.28575"
       r="29.036913"
       gradientTransform="matrix(1,0,0,0.177966,0,108.7434)"
       gradientUnits="userSpaceOnUse" /></defs><sodipodi:namedview
     id="namedview1"
     pagecolor="#ffffff"
     bordercolor="#000000"
     borderopacity="0.25"
     inkscape:showpageshadow="2"
     inkscape:pageopacity="0.0"
     inkscape:pagecheckerboard="0"
     inkscape:deskcolor="#d1d1d1"
     showguides="true"
     inkscape:zoom="1.0474019"
     inkscape:cx="207.1793"
     inkscape:cy="403.85643"
     inkscape:window-width="1912"
     inkscape:window-height="1138"
     inkscape:window-x="1924"
     inkscape:window-y="28"
     inkscape:window-maximized="0"
     inkscape:current-layer="svg1"><sodipodi:guide
       position="385.61002,141.82391"
       orientation="1,0"
       id="guide1"
       inkscape:locked="false" /><sodipodi:guide
       position="-37.130802,448.27004"
       orientation="0,-1"
       id="guide2"
       inkscape:locked="false" /></sodipodi:namedview><!--!Font Awesome Free v7.0.1 by @fontawesome - https://fontawesome.com License - https://fontawesome.com/license/free Copyright 2025 Fonticons, Inc.--><path
     d="m 280,0 c -44.125,0 -80,35.875 -80,80 v 320 c 0,44.125 35.875,80 80,80 h 240 c 44.125,0 80,-35.875 80,-80 V 149.25 C 600,127.5 591.125,106.625 575.375,91.5 L 503.25,22.25 C 488.375,8 468.5,0 447.875,0 Z M 120,160 c -44.125,0 -80,35.875 -80,80 v 320 c 0,44.125 35.875,80 80,80 h 240 c 44.125,0 80,-35.875 80,-80 v -20 h -80 v 20 H 120 V 240 h 20 v -80 z"
     id="path1"
     style="fill:#006dad;fill-opacity:1;stroke-width:1.25" /><g
     id="g1"
     transform="matrix(1.2011372,0,0,1.2109687,322.24458,137.81704)"
     style="fill:#ffffff;fill-opacity:1"><path
       style="fill:#ffffff;fill-opacity:1;stroke-width:2.65481"
       d="m 64.83407,-58.037195 c -12.168708,0.05654 -23.789561,1.094359 -34.014709,2.903695 -30.12200779,5.32157 -35.5909968,16.460072 -35.5909988,37.001366 V 8.9966709 H 66.410362 V 18.039606 H -4.7716378 -31.485629 c -20.687471,0 -38.802013,12.434362 -44.468009,36.088779 -6.535657,27.113448 -6.825548,44.032684 0,72.343485 5.059871,21.07346 17.143527,36.08876 37.830993,36.08877 h 24.473998 v -32.52137 c 0,-23.49478 20.3282352,-44.219123 44.468008,-44.219134 H 101.9184 c 19.79145,0 35.59101,-16.295637 35.591,-36.17174 v -67.78053 c 0,-19.290724 -16.27391,-33.781822 -35.591,-37.001366 -12.228004,-2.035508 -24.915612,-2.960238 -37.08433,-2.903695 z m -38.494693,21.819192 c 7.35261,0 13.356994,6.102459 13.356994,13.605882 0,7.476829 -6.004384,13.5229223 -13.356994,13.5229223 -7.378971,-3.3e-6 -13.356995,-6.0460973 -13.356995,-13.5229223 -3e-6,-7.50342 5.978024,-13.605882 13.356995,-13.605882 z"
       id="path1948" /><path
       style="fill:#ffffff;fill-opacity:1;stroke-width:2.65481"
       d="m 146.38641,18.039606 v 31.60879 c 0,24.505875 -20.77623,45.13171 -44.46801,45.13171 H 30.819361 c -19.475215,0 -35.5909968,16.668164 -35.5909988,36.171744 v 67.78053 c 0,19.29074 16.7746298,30.63732 35.5909988,36.17174 22.532223,6.62536 44.13945,7.82273 71.099039,0 17.92035,-5.18852 35.59101,-15.63046 35.591,-36.17174 V 171.60357 H 66.410362 v -9.04293 h 71.099038 35.59101 c 20.68748,0 28.39649,-14.42995 35.59098,-36.08877 7.43168,-22.29742 7.11546,-43.740007 0,-72.343485 C 203.57881,33.533877 193.8142,18.039606 173.10041,18.039606 Z M 106.39839,189.68945 c 7.37897,1e-5 13.35699,6.0461 13.35699,13.52291 0,7.50342 -5.97802,13.60589 -13.35699,13.60589 -7.352624,0 -13.356998,-6.10247 -13.356998,-13.60589 1.1e-5,-7.47681 6.004374,-13.52291 13.356998,-13.52291 z"
       id="path1950" /></g></svg>
